<svg width="32" height="32" viewBox="0 0 32 32" fill="none" xmlns="http://www.w3.org/2000/svg">
  <defs>
    <linearGradient id="crateGradient" x1="0%" y1="0%" x2="100%" y2="100%">
      <stop offset="0%" style="stop-color:#f59e0b;stop-opacity:1" />
      <stop offset="50%" style="stop-color:#d97706;stop-opacity:1" />
      <stop offset="100%" style="stop-color:#b45309;stop-opacity:1" />
    </linearGradient>
    <linearGradient id="backgroundGradient" x1="0%" y1="0%" x2="100%" y2="100%">
      <stop offset="0%" style="stop-color:#1e293b;stop-opacity:1" />
      <stop offset="100%" style="stop-color:#0f172a;stop-opacity:1" />
    </linearGradient>
    <linearGradient id="lockGradient" x1="0%" y1="0%" x2="100%" y2="100%">
      <stop offset="0%" style="stop-color:#3b82f6;stop-opacity:1" />
      <stop offset="100%" style="stop-color:#1d4ed8;stop-opacity:1" />
    </linearGradient>
    <linearGradient id="mysteryGradient" x1="0%" y1="0%" x2="100%" y2="100%">
      <stop offset="0%" style="stop-color:#8b5cf6;stop-opacity:1" />
      <stop offset="100%" style="stop-color:#7c3aed;stop-opacity:1" />
    </linearGradient>
  </defs>
  
  <!-- Background circle -->
  <circle cx="16" cy="16" r="15" fill="url(#backgroundGradient)" stroke="url(#crateGradient)" stroke-width="2"/>
  
  <!-- Main crate box -->
  <rect x="6" y="12" width="20" height="16" fill="url(#crateGradient)" stroke="white" stroke-width="1" rx="2"/>
  
  <!-- Crate lid with depth -->
  <rect x="4" y="10" width="24" height="4" fill="url(#crateGradient)" stroke="white" stroke-width="1" rx="2"/>
  <rect x="5" y="9" width="22" height="2" fill="url(#crateGradient)" stroke="white" stroke-width="0.5" rx="1"/>
  
  <!-- Crate straps -->
  <rect x="8" y="14" width="16" height="2" fill="url(#mysteryGradient)" stroke="white" stroke-width="0.5" rx="1"/>
  <rect x="8" y="20" width="16" height="2" fill="url(#mysteryGradient)" stroke="white" stroke-width="0.5" rx="1"/>
  
  <!-- Lock mechanism -->
  <circle cx="16" cy="11" r="2" fill="url(#lockGradient)" stroke="white" stroke-width="0.5"/>
  <rect x="15" y="11" width="2" height="3" fill="url(#lockGradient)" stroke="white" stroke-width="0.5" rx="1"/>
  
  <!-- Mystery sparkles -->
  <circle cx="10" cy="8" r="1" fill="url(#mysteryGradient)"/>
  <circle cx="22" cy="8" r="1" fill="url(#mysteryGradient)"/>
  <circle cx="8" cy="26" r="1" fill="url(#mysteryGradient)"/>
  <circle cx="24" cy="26" r="1" fill="url(#mysteryGradient)"/>
  
  <!-- Secret text -->
  <text x="16" y="30" font-family="Arial, sans-serif" font-size="3" font-weight="bold" text-anchor="middle" fill="white">SECRET</text>
</svg>