<svg width="32" height="32" viewBox="0 0 32 32" fill="none" xmlns="http://www.w3.org/2000/svg">
  <defs>
    <linearGradient id="crateGradient" x1="0%" y1="0%" x2="100%" y2="100%">
      <stop offset="0%" style="stop-color:#f59e0b;stop-opacity:1" />
      <stop offset="100%" style="stop-color:#d97706;stop-opacity:1" />
    </linearGradient>
    <linearGradient id="backgroundGradient" x1="0%" y1="0%" x2="100%" y2="100%">
      <stop offset="0%" style="stop-color:#1e293b;stop-opacity:1" />
      <stop offset="100%" style="stop-color:#0f172a;stop-opacity:1" />
    </linearGradient>
    <linearGradient id="lockGradient" x1="0%" y1="0%" x2="100%" y2="100%">
      <stop offset="0%" style="stop-color:#3b82f6;stop-opacity:1" />
      <stop offset="100%" style="stop-color:#1d4ed8;stop-opacity:1" />
    </linearGradient>
  </defs>
  
  <!-- Background circle -->
  <circle cx="16" cy="16" r="15" fill="url(#backgroundGradient)" stroke="url(#crateGradient)" stroke-width="2"/>
  
  <!-- Crate box -->
  <rect x="8" y="10" width="16" height="12" fill="url(#crateGradient)" stroke="white" stroke-width="1" rx="2"/>
  
  <!-- Crate lid -->
  <rect x="6" y="8" width="20" height="4" fill="url(#crateGradient)" stroke="white" stroke-width="1" rx="2"/>
  
  <!-- Lock icon -->
  <path d="M16 12V10C16 8.5 15 7 13 7S10 8.5 10 10V12C9 12 8 13 8 14V18C8 19 9 20 10 20H14C15 20 16 19 16 18V14C16 13 15 12 14 12H16Z" fill="url(#lockGradient)" stroke="white" stroke-width="0.5"/>
  
  <!-- Secret text -->
  <text x="16" y="26" font-family="Arial, sans-serif" font-size="4" font-weight="bold" text-anchor="middle" fill="white">SECRET</text>
</svg>
